<svg width="16" height="16" viewBox="0 0 16 16" fill="none" xmlns="http://www.w3.org/2000/svg">
<path d="M9.78315 7.33084L10.945 5.33706L14.0767 10.27L14.0781 11.2167L14.0679 4.70229C14.0605 4.54305 13.9769 4.39737 13.8435 4.31146L8.20537 1.03156C8.07349 0.966015 7.90622 0.96671 7.77459 1.03359C7.75682 1.04263 7.74007 1.05241 7.72412 1.06309L7.70448 1.0756L2.23174 4.28296L2.21048 4.2927C2.18319 4.30541 2.15559 4.32154 2.12967 4.34031C2.02593 4.41559 1.957 4.52686 1.93471 4.65169C1.93137 4.67061 1.92891 4.68987 1.92773 4.70929L1.93633 10.0179L4.85332 5.44545C5.22057 4.83913 6.02075 4.64384 6.76354 4.65447L7.63535 4.67776L2.49863 13.009L3.10415 13.3615L8.30243 4.6862L10.6001 4.67776L5.41519 13.572L7.57585 14.8289L7.834 14.979C7.94319 15.0239 8.07192 15.0261 8.18205 14.986L13.8994 11.6351L12.8063 12.2757L9.78315 7.33084ZM10.2264 13.7877L8.04413 10.3238L9.37628 8.03766L12.2423 12.6062L10.2264 13.7877Z" fill="#2D374B"/>
<path d="M8.04297 10.3237L10.2253 13.7877L12.2412 12.6062L9.37516 8.0376L8.04297 10.3237Z" fill="#28A0F0"/>
<path d="M14.0762 11.2175L14.0748 10.2709L10.9431 5.33789L9.78125 7.33167L12.8044 12.2765L13.8975 11.6359C14.0048 11.5479 14.0696 11.4186 14.0764 11.2792L14.0762 11.2175Z" fill="#28A0F0"/>
<path d="M0.954151 12.1097L2.49776 13.0092L7.63447 4.67799L6.76266 4.6547C6.01987 4.64408 5.21974 4.83937 4.85245 5.44568L1.93545 10.0181L0.954102 11.543V12.1097H0.954151Z" fill="white"/>
<path d="M10.5984 4.67822L8.30082 4.68666L3.10254 13.362L4.91947 14.42L5.41358 13.5725L10.5984 4.67822Z" fill="white"/>
<path d="M15.0455 4.66601C15.0263 4.18005 14.7661 3.73516 14.3586 3.47616L8.64656 0.1541C8.24342 -0.0512174 7.73979 -0.0514658 7.33601 0.15395C7.28829 0.178281 1.78114 3.40844 1.78114 3.40844C1.70494 3.44538 1.63154 3.48942 1.56246 3.53937C1.19865 3.80308 0.976883 4.21282 0.954102 4.66303V11.5431L1.93545 10.0182L1.92686 4.70955C1.92804 4.69014 1.93044 4.67107 1.93383 4.6522C1.95597 4.52728 2.02495 4.41585 2.12879 4.34058C2.15472 4.32181 7.75589 1.0429 7.77371 1.03386C7.90539 0.966976 8.07266 0.966281 8.20449 1.03182L13.8426 4.31173C13.976 4.39763 14.0596 4.54331 14.0671 4.70255V11.2786C14.0602 11.4181 14.0057 11.5473 13.8985 11.6354L12.8054 12.2759L12.2414 12.6065L10.2255 13.788L8.18112 14.9862C8.071 15.0264 7.94226 15.0242 7.83307 14.9793L5.41426 13.5723L4.92015 14.4198L7.09387 15.6855C7.16575 15.7268 7.22982 15.7635 7.28235 15.7933C7.36376 15.8395 7.41919 15.8704 7.43878 15.8799C7.59328 15.9558 7.81555 16 8.01586 16C8.19953 16 8.37859 15.9659 8.54807 15.8988L14.4861 12.4209C14.8269 12.1538 15.0274 11.7511 15.0455 11.3148V4.66601Z" fill="#96BEDC"/>
</svg>
