<svg width="16" height="16" viewBox="0 0 16 16" fill="none" xmlns="http://www.w3.org/2000/svg">
<path d="M8 16C12.4183 16 16 12.4183 16 8C16 3.58172 12.4183 0 8 0C3.58172 0 0 3.58172 0 8C0 12.4183 3.58172 16 8 16Z" fill="#E84142"/>
<path d="M10.822 8.20775C11.0991 7.72901 11.5464 7.72901 11.8236 8.20775L13.5495 11.2377C13.8267 11.7164 13.5999 12.107 13.0456 12.107H9.56843C9.0204 12.107 8.79363 11.7164 9.0645 11.2377L10.822 8.20775ZM7.48339 2.37468C7.76056 1.89594 8.20151 1.89594 8.47867 2.37468L8.86292 3.06759L9.77001 4.66129C9.99048 5.11484 9.99048 5.65027 9.77001 6.10381L6.72749 11.3763C6.45032 11.8046 5.99048 12.0755 5.48024 12.107H2.95426C2.39993 12.107 2.17316 11.7227 2.45032 11.2377L7.48339 2.37468Z" fill="white"/>
</svg>
