<svg
            width="120"
            height="120"
            viewBox="0 0 120 120"
            fill="none"
            xmlns="http://www.w3.org/2000/svg"
          >
            <path
              d="M102.426 17.5734C91.0938 6.24117 76.0266 0 60 0C43.9732 0 28.9057 6.24117 17.5734 17.5734C6.24094 28.9059 0 43.9734 0 60C0 76.0266 6.24094 91.0938 17.5734 102.426C28.9059 113.759 43.9732 120 60 120C76.0266 120 91.0938 113.759 102.426 102.426C113.759 91.0938 120 76.0266 120 60C120 43.9734 113.759 28.9062 102.426 17.5734ZM60 112.969C30.7929 112.969 7.03125 89.2071 7.03125 60C7.03125 30.7929 30.7929 7.03125 60 7.03125C89.2071 7.03125 112.969 30.7929 112.969 60C112.969 89.2071 89.2071 112.969 60 112.969Z"
              fill="#14F195"
            />
            <path
              d="M88.6651 40.7481C87.2924 39.3756 85.0663 39.3756 83.6935 40.7483L52.6485 71.7934L36.3062 55.4511C34.9335 54.0784 32.7074 54.0784 31.3344 55.4511C29.9614 56.8239 29.9614 59.05 31.3344 60.4229L50.1625 79.251C50.8489 79.9375 51.7487 80.2806 52.6482 80.2806C53.5478 80.2806 54.4478 79.9372 55.134 79.251L88.6651 45.7199C90.0381 44.3472 90.0381 42.1211 88.6651 40.7481Z"
              fill="#14F195"
            />
          </svg>