<svg width="16" height="16" viewBox="0 0 16 16" fill="none" xmlns="http://www.w3.org/2000/svg">
<path d="M7.99974 15.1109C11.9208 15.1109 15.1108 11.9209 15.1108 7.99983C15.1108 4.07874 11.9208 0.888672 7.99974 0.888672C4.0787 0.888672 0.888672 4.07874 0.888672 7.99983C0.888672 11.9209 4.0787 15.1109 7.99974 15.1109ZM3.36341 11.5106C3.92686 11.289 4.63629 11.1124 5.43368 10.9914C5.54194 11.6413 5.68563 12.2439 5.86276 12.7754C5.95554 13.0538 6.05325 13.2995 6.15418 13.5178C5.03352 13.1419 4.06413 12.4337 3.36341 11.5106ZM2.18159 7.99983C2.18159 7.14887 2.36527 6.34002 2.69493 5.61081C3.39409 5.91012 4.27729 6.14168 5.27224 6.29119C5.22379 6.84331 5.19841 7.41616 5.19841 7.99983C5.19841 8.58345 5.22379 9.15634 5.27224 9.70842C4.27729 9.85797 3.39405 10.0895 2.69497 10.3888C2.36527 9.65964 2.18159 8.85078 2.18159 7.99983ZM7.99974 2.18159C8.13894 2.18159 8.54466 2.53633 8.91021 3.63303C9.06045 4.08383 9.18401 4.59509 9.27934 5.14868C8.86376 5.17772 8.43519 5.19307 7.99957 5.19307C7.56407 5.19307 7.13564 5.17777 6.72013 5.14868C6.81547 4.59509 6.93903 4.08387 7.08931 3.63307C7.45486 2.53633 7.86054 2.18159 7.99974 2.18159ZM7.99957 6.48599C8.49204 6.48599 8.97482 6.46789 9.44242 6.43337C9.48561 6.93782 9.50815 7.463 9.50815 7.99983C9.50815 8.53665 9.48561 9.06175 9.44247 9.5662C8.97486 9.53168 8.49217 9.51358 7.99974 9.51358C7.50731 9.51358 7.02462 9.53168 6.55705 9.5662C6.51387 9.06175 6.49133 8.5366 6.49133 7.99983C6.49133 7.463 6.51387 6.93786 6.55705 6.43337C7.02457 6.46789 7.50722 6.48599 7.99957 6.48599ZM13.8179 7.99983C13.8179 8.85074 13.6342 9.65955 13.3046 10.3888C12.6054 10.0894 11.7222 9.85793 10.7272 9.70842C10.7757 9.15634 10.8011 8.58349 10.8011 7.99983C10.8011 7.41611 10.7757 6.84326 10.7272 6.29114C11.7222 6.14164 12.6054 5.91003 13.3045 5.61068C13.6342 6.33993 13.8179 7.14882 13.8179 7.99983ZM7.99974 13.818C7.86054 13.818 7.45486 13.4632 7.08935 12.3665C6.93907 11.9157 6.81551 11.4045 6.72013 10.8509C7.13572 10.8218 7.56415 10.8065 7.99974 10.8065C8.43532 10.8065 8.8638 10.8218 9.27934 10.8509C9.18401 11.4045 9.06045 11.9157 8.91021 12.3665C8.54466 13.4632 8.13899 13.818 7.99974 13.818ZM9.84538 13.5178C9.94628 13.2995 10.044 13.0538 10.1368 12.7754C10.3139 12.2439 10.4576 11.6413 10.5659 10.9914C11.3632 11.1124 12.0726 11.289 12.6361 11.5106C11.9354 12.4336 10.966 13.1419 9.84538 13.5178ZM12.636 4.4889C12.0726 4.7105 11.3632 4.88716 10.5658 5.00813C10.4576 4.35823 10.3139 3.75564 10.1368 3.22416C10.044 2.9458 9.94628 2.7001 9.84534 2.48177C10.966 2.85766 11.9353 3.56588 12.636 4.4889ZM6.15418 2.48181C6.05325 2.70005 5.95559 2.9458 5.86276 3.22416C5.68563 3.75573 5.54194 4.35827 5.43368 5.00822C4.63629 4.8872 3.92686 4.71059 3.36341 4.48903C4.06409 3.56597 5.03348 2.85762 6.15418 2.48181Z" fill="#FF3939"/>
</svg>
