<svg width="16" height="16" viewBox="0 0 16 16" fill="none" xmlns="http://www.w3.org/2000/svg">
<path d="M15.7331 8.15625C15.644 3.91827 12.1124 0.564801 7.86165 0.711157C3.71276 0.851151 0.429286 4.32553 0.518372 8.48078C0.582006 11.5479 2.45919 14.1569 5.09997 15.3023C5.4754 14.825 5.78721 13.9723 5.93993 13.4951C6.09265 13.1069 6.25809 12.7251 6.4299 12.356C7.19987 12.6233 8.23709 12.3688 8.80979 11.7515L8.83524 11.7261C8.148 11.427 7.19986 11.5797 6.57626 12.0633C6.78625 11.6243 7.01533 11.1979 7.25077 10.7843C8.00801 11.0897 9.05796 10.8798 9.64975 10.2943L9.6752 10.2689C9.01341 9.94434 8.078 10.0462 7.43531 10.4789C7.67075 10.0907 7.91256 9.7089 8.16709 9.35255C8.95614 9.59436 9.99337 9.29528 10.5342 8.65259L10.5533 8.62713C9.91064 8.37896 9.07068 8.52532 8.47253 8.9453C8.49162 8.91985 8.51707 8.88803 8.53616 8.86258C8.68888 8.66531 8.84797 8.46805 9.00705 8.27715C9.9361 8.01625 10.7633 7.06812 10.897 6.08817L10.9033 6.04999H10.897C9.9361 6.24089 9.04523 7.18902 8.86706 8.18807C8.71434 8.3726 8.56162 8.55714 8.41526 8.74804C8.65707 8.09898 8.61252 7.30356 8.26254 6.75632L8.24345 6.78177C7.71529 7.44992 7.63257 8.53805 8.03982 9.26347C7.79802 9.60709 7.56257 9.95707 7.33986 10.3261C7.47985 9.588 7.24441 8.72895 6.72262 8.24533L6.70989 8.27715C6.36627 9.04711 6.55081 10.1098 7.11714 10.7143C6.89442 11.1025 6.68443 11.5034 6.48081 11.917C6.60171 11.147 6.32809 10.2561 5.78084 9.7789L5.76812 9.81071C5.45631 10.6189 5.69812 11.7133 6.30264 12.2988C6.16901 12.5851 6.04174 12.8715 5.92084 13.1705C5.88902 13.1387 5.85084 13.1196 5.8063 13.1006C5.64721 13.056 5.43086 12.9733 5.18905 12.8269C5.02997 12.7315 4.85816 12.6551 4.68635 12.5978C3.99911 12.3751 4.10092 12.0442 3.74458 11.3761C3.71913 11.3315 3.43914 11.0388 3.37551 10.9816C3.36278 10.9688 3.17824 10.8607 3.08916 10.6698C3.00643 10.4916 2.95553 10.3261 2.9428 10.1671C2.91735 9.95071 2.82826 9.81071 2.61827 9.73435C1.6065 9.38437 2.0583 8.07352 2.09648 7.90172C2.12829 7.75536 1.99466 7.43083 1.95012 7.25266C1.94376 7.23357 1.93739 7.20811 1.93103 7.16993C1.86103 6.81995 2.02012 6.52087 2.14102 6.39997C2.26192 6.27907 2.6819 6.0818 2.77099 5.96726C2.86008 5.85273 2.92371 5.72546 3.0128 5.61728C3.1337 5.47093 3.49005 5.18458 3.98002 4.92368C4.27274 4.7646 4.32364 4.35734 4.43818 4.23008C4.62908 4.01372 4.92179 4.01372 5.13815 3.82282C5.24632 3.72737 5.40541 3.67647 5.50722 3.57465C6.00992 3.05922 6.67807 2.8556 7.33986 2.72833C7.78529 2.64561 8.28163 2.77287 8.75252 2.8556C8.82251 2.86832 8.88615 2.88105 8.94978 2.90014C9.99973 2.93832 11.2597 3.15467 11.7178 3.60011C12.0042 3.88009 12.1442 4.17917 12.2078 4.38916C12.2842 4.6246 12.386 4.84732 12.5132 5.05095L12.7932 5.5091C12.9714 5.79545 13.0287 6.14544 12.9523 6.47633C12.9078 6.66723 12.8887 6.86449 12.9396 6.97267C13.0287 7.14448 13.2959 7.42447 13.455 7.58355C13.5314 7.65991 13.6205 7.72991 13.7095 7.78718C13.9259 7.9208 14.3332 8.18807 14.3332 8.20716C14.3332 8.23897 14.365 8.36624 14.1868 8.52532C14.0086 8.6844 13.665 8.93257 13.665 8.93257C13.665 8.93257 13.6841 9.04711 13.7286 9.1362C13.7795 9.22529 13.8941 9.36528 13.8559 9.48618C13.8177 9.60709 13.5696 9.7089 13.6396 9.84253C13.7095 9.98252 13.8877 10.0207 13.8368 10.148C13.7859 10.2689 13.5377 10.4852 13.5632 10.5743C13.5886 10.6634 13.7923 11.5161 13.3214 11.6624C12.9714 11.777 12.0042 11.8342 11.5524 11.8597C11.3551 11.8724 11.1833 11.9806 11.0879 12.1524C11.0179 12.2797 10.9479 12.4579 10.916 12.6933C10.827 13.2915 10.2352 14.6723 10.2352 14.6723C10.2352 14.6723 10.2161 14.7105 10.1906 14.7677C10.1397 14.895 10.0634 15.0859 10.0761 15.1686C10.0825 15.2195 10.1524 15.3214 10.2543 15.4423C10.337 15.5377 10.4706 15.5759 10.5915 15.5377C13.6396 14.4687 15.8031 11.5479 15.7331 8.15625Z" fill="#14F195"/>
</svg>
