<svg width="12" height="12" viewBox="0 0 12 12" fill="none" xmlns="http://www.w3.org/2000/svg">
<path fill-rule="evenodd" clip-rule="evenodd" d="M5.41602 0.166992H2.49935C1.21077 0.166992 0.166016 1.21174 0.166016 2.50033V9.50033C0.166016 10.7889 1.21077 11.8337 2.49935 11.8337H9.49935C10.7879 11.8337 11.8327 10.7889 11.8327 9.50033C11.8327 8.17558 11.8327 6.58366 11.8327 6.58366C11.8327 6.26166 11.5714 6.00033 11.2493 6.00033C10.9274 6.00033 10.666 6.26166 10.666 6.58366V9.50033C10.666 10.1443 10.1433 10.667 9.49935 10.667C7.55685 10.667 4.44127 10.667 2.49935 10.667C1.85477 10.667 1.33268 10.1443 1.33268 9.50033C1.33268 7.55783 1.33268 4.44224 1.33268 2.50033C1.33268 1.85574 1.85477 1.33366 2.49935 1.33366H5.41602C5.73802 1.33366 5.99935 1.07233 5.99935 0.750326C5.99935 0.428326 5.73802 0.166992 5.41602 0.166992ZM9.84118 1.33366H7.74935C7.42735 1.33366 7.16602 1.07233 7.16602 0.750326C7.16602 0.428326 7.42735 0.166992 7.74935 0.166992H11.2493C11.5714 0.166992 11.8327 0.428326 11.8327 0.750326V4.25033C11.8327 4.57233 11.5714 4.83366 11.2493 4.83366C10.9274 4.83366 10.666 4.57233 10.666 4.25033V2.15849L6.41177 6.41274C6.18427 6.64024 5.81443 6.64024 5.58693 6.41274C5.35885 6.18524 5.35885 5.81541 5.58693 5.58791L9.84118 1.33366Z" fill="#818987"/>
</svg>
