<svg width="14" height="14" viewBox="0 0 14 14" fill="none" xmlns="http://www.w3.org/2000/svg">
<circle cx="7" cy="7" r="6.75" fill="black" stroke="#1C1C1C" stroke-width="0.5"/>
<path d="M11.0975 5.99929C9.73428 5.70395 8.24343 6.04341 7.17547 7.03128C7.11346 7.08568 7.06609 7.15012 7.00776 7.20786C6.94944 7.14335 6.88385 7.08226 6.82184 7.02117C5.76474 6.02645 4.27757 5.67337 2.91063 5.95859C2.59353 7.22825 2.95801 8.61675 4.01879 9.61147C4.59467 10.1512 5.29456 10.4941 6.03447 10.657C6.03447 10.6639 6.03815 10.6706 6.03815 10.6774C7.40141 10.9727 8.89226 10.6333 9.96031 9.64532C11.0247 8.65411 11.4038 7.26895 11.0975 5.99929Z" fill="#14F195"/>
<path d="M8.42543 10.5408C8.37814 9.34915 7.90419 8.16782 7.0112 7.21045C6.1035 8.15754 5.61878 9.32876 5.5531 10.517C5.70986 10.5713 5.8702 10.6155 6.03064 10.6528C6.03064 10.6596 6.03423 10.6664 6.03423 10.6731C6.82528 10.8429 7.65635 10.7987 8.42543 10.5408Z" fill="#14B572"/>
<path d="M8.41532 4.47777C8.41165 4.42002 8.40438 4.35893 8.39702 4.30127C8.2513 4.25372 8.09822 4.1994 7.94873 4.16539C7.94873 4.15862 7.94873 4.17224 7.94873 4.16539C7.1723 3.99566 6.35218 4.02967 5.59397 4.27403C5.58302 4.34531 5.57575 4.4166 5.56848 4.49131C5.57216 4.54905 5.57943 4.61014 5.5867 4.66789C5.73251 4.71544 5.88559 4.76976 6.03499 4.80361C6.03499 4.81046 6.03499 4.79684 6.03499 4.80361C6.81141 4.97342 7.63154 4.93949 8.38975 4.69505C8.4007 4.62034 8.40806 4.54905 8.41532 4.47777Z" fill="#14F195"/>
</svg>
