<svg width="25" height="25" viewBox="0 0 25 25" fill="none" xmlns="http://www.w3.org/2000/svg">
<path d="M23.8357 8.53929C20.1249 7.70477 16.0669 8.66397 13.1599 11.4554C12.9911 11.6091 12.8622 11.7912 12.7034 11.9544C12.5447 11.7721 12.3661 11.5994 12.1974 11.4268C9.31996 8.61604 5.27192 7.61835 1.55117 8.42429C0.68802 12.012 1.68013 15.9355 4.56753 18.7462C6.13507 20.2715 8.04014 21.2404 10.0542 21.7006C10.0542 21.72 10.0642 21.7391 10.0642 21.7582C13.7749 22.5927 17.833 21.6335 20.7401 18.8419C23.6373 16.041 24.6692 12.127 23.8357 8.53929Z" fill="#14F195"/>
<path d="M16.5625 21.3748C16.4338 18.0077 15.1437 14.6696 12.713 11.9644C10.2423 14.6405 8.92292 17.9501 8.74414 21.3077C9.17083 21.4612 9.60729 21.5859 10.044 21.6915C10.044 21.7106 10.0538 21.7297 10.0538 21.7489C12.207 22.2287 14.4691 22.1038 16.5625 21.3748Z" fill="#14B572"/>
<path d="M16.5327 4.24205C16.5227 4.07888 16.5029 3.90625 16.4829 3.74331C16.0862 3.60895 15.6696 3.45546 15.2627 3.35936C15.2627 3.34023 15.2627 3.37871 15.2627 3.35936C13.1492 2.87975 10.9169 2.97586 8.85306 3.66634C8.82326 3.86777 8.80348 4.0692 8.78369 4.2803C8.7937 4.44347 8.81349 4.61609 8.83327 4.77926C9.23016 4.91363 9.64684 5.06712 10.0535 5.16276C10.0535 5.18212 10.0535 5.14363 10.0535 5.16276C12.1669 5.6426 14.3993 5.54672 16.4631 4.85601C16.4929 4.6449 16.5129 4.44347 16.5327 4.24205Z" fill="#14F195"/>
</svg>
