<svg width="16" height="16" viewBox="0 0 16 16" fill="none" xmlns="http://www.w3.org/2000/svg">
<g clip-path="url(#clip0_599_7857)">
<path d="M8.03113 11.2505C7.77271 11.2505 7.56238 11.0402 7.56238 10.7817C7.56238 10.523 7.35254 10.313 7.09375 10.313C6.83484 10.313 6.625 10.523 6.625 10.7817C6.625 11.3928 7.01685 11.9138 7.56238 12.1073V12.6566C7.56238 12.9154 7.77222 13.1253 8.03113 13.1253C8.28992 13.1253 8.49988 12.9154 8.49988 12.6566V12.1073C9.04541 11.9138 9.43726 11.3928 9.43726 10.7817C9.43726 10.0065 8.8064 9.37561 8.03113 9.37561C7.77271 9.37561 7.56238 9.16541 7.56238 8.90699C7.56238 8.64844 7.77271 8.43823 8.03113 8.43823C8.28955 8.43823 8.49988 8.64844 8.49988 8.90699C8.49988 9.16577 8.70972 9.37561 8.96851 9.37561C9.22742 9.37561 9.43726 9.16577 9.43726 8.90699C9.43726 8.2959 9.04541 7.7749 8.49988 7.58142V7.0321C8.49988 6.77332 8.28992 6.56348 8.03113 6.56348C7.77222 6.56348 7.56238 6.77332 7.56238 7.0321V7.58142C7.01685 7.7749 6.625 8.2959 6.625 8.90699C6.625 9.68225 7.25574 10.313 8.03113 10.313C8.28955 10.313 8.49988 10.5233 8.49988 10.7817C8.49988 11.0402 8.28955 11.2505 8.03113 11.2505Z" fill="white"/>
<path d="M1.9375 10.7818C1.9375 12.6287 2.55786 14.0081 3.78125 14.8814C4.792 15.6029 6.22168 15.9688 8.03065 15.9688C9.83961 15.9688 11.2693 15.6029 12.28 14.8814C13.5034 14.0081 14.1238 12.6287 14.1238 10.7818C14.1238 7.54615 12.281 5.04383 10.0492 4.14393C10.4921 3.11133 10.9585 1.74439 11.2549 1.08814C11.3705 0.875123 11.3042 0.60901 11.1029 0.474854C10.0907 -0.199951 8.78285 -0.199951 7.77064 0.474854C7.07435 0.938966 6.17469 0.938966 5.4784 0.474854C5.2837 0.344971 5.02295 0.378785 4.86768 0.553956C4.71241 0.729127 4.71021 0.992067 4.86255 1.1698C5.12342 1.474 5.35279 2.5232 6.01954 4.14087C3.75672 5.04957 1.9375 7.57496 1.9375 10.7818ZM6.12415 1.71863C6.86365 1.84412 7.63856 1.68946 8.29066 1.25476C8.87879 0.862672 9.61231 0.801759 10.2455 1.07227C9.87403 1.98487 9.53297 2.98523 9.14698 3.86841C8.7826 3.79114 8.40943 3.75123 8.03065 3.75123C7.65406 3.75123 7.28297 3.79065 6.92066 3.86695C6.64246 3.20435 6.35254 2.36133 6.12415 1.71863ZM8.03065 4.6886C10.8735 4.6886 13.1864 7.42201 13.1864 10.7818C13.1864 12.33 12.7118 13.4215 11.7354 14.1184C10.8869 14.7243 9.64027 15.0314 8.03065 15.0314C6.4209 15.0314 5.17444 14.7241 4.32593 14.1184C3.34949 13.4215 2.87488 12.3301 2.87488 10.7818C2.87488 7.42201 5.18775 4.6886 8.03065 4.6886Z" fill="white"/>
</g>
<defs>
<clipPath id="clip0_599_7857">
<rect width="16" height="16" fill="white"/>
</clipPath>
</defs>
</svg>
