<svg width="16" height="16" viewBox="0 0 16 16" fill="none" xmlns="http://www.w3.org/2000/svg">
<path d="M15.535 6.86998L15.515 6.84998C15.215 6.54998 14.8175 6.38498 14.395 6.38498C14.09 6.38498 13.7975 6.47248 13.5475 6.63248L9.3675 2.45748C9.5275 2.20748 9.615 1.91498 9.615 1.60998C9.615 1.19248 9.455 0.799981 9.1625 0.50248L9.15 0.49248C9.1425 0.48498 9.1375 0.47748 9.13 0.47248C8.5125 -0.14252 7.5075 -0.14252 6.89 0.47248L3.185 4.17498C2.885 4.47248 2.72 4.86998 2.72 5.29248C2.72 5.70998 2.88 6.09998 3.1725 6.39748L3.185 6.40998C3.1925 6.41748 3.1975 6.42498 3.205 6.43248C3.5125 6.73998 3.92 6.89498 4.325 6.89498C4.62 6.89498 4.915 6.81248 5.1725 6.64748L6.1125 7.58748L0.4725 13.225C-0.1575 13.855 -0.1575 14.8825 0.4725 15.515C0.78 15.8225 1.19 15.9925 1.6225 15.9925C2.0575 15.9925 2.465 15.8225 2.77 15.515L8.41 9.88248L9.35 10.8225C9.19 11.0725 9.1025 11.365 9.1025 11.67C9.1025 12.0925 9.2675 12.49 9.5675 12.7875L9.5875 12.8075C9.895 13.115 10.3025 13.27 10.7075 13.27C11.1125 13.27 11.5175 13.115 11.8275 12.8075L15.535 9.10498C15.835 8.80748 16 8.40998 16 7.98748C16 7.56498 15.835 7.16748 15.535 6.86998ZM3.92 5.73498L3.91 5.72498C3.9025 5.71748 3.8975 5.70998 3.89 5.70248C3.78 5.59248 3.72 5.44748 3.72 5.29248C3.72 5.13748 3.78 4.99248 3.89 4.88248L7.6 1.17748C7.825 0.95248 8.19 0.94998 8.4175 1.16998L8.4275 1.17998C8.435 1.18748 8.44 1.19498 8.4475 1.19998C8.5575 1.30998 8.6175 1.45498 8.6175 1.60998C8.6175 1.76498 8.5575 1.90998 8.4475 2.01998L4.7375 5.72498C4.5125 5.94998 4.1475 5.95248 3.92 5.73498ZM8.69 3.19248L12.8125 7.30998L10.03 10.0875L5.9075 5.96998L8.69 3.19248ZM7.7025 9.17748L2.0625 14.8075C1.8275 15.045 1.415 15.0425 1.18 14.8075C0.94 14.565 0.94 14.1725 1.18 13.93L6.8225 8.29498L7.7025 9.17748ZM14.83 8.39748L11.1225 12.1C10.895 12.3275 10.525 12.3275 10.2975 12.1L10.2775 12.08C10.1675 11.97 10.1075 11.825 10.1075 11.67C10.1075 11.515 10.1675 11.37 10.2775 11.26L13.9875 7.55748C14.0975 7.44748 14.245 7.38498 14.4 7.38498C14.555 7.38498 14.7025 7.44498 14.8125 7.55748L14.8325 7.57748C14.9425 7.68748 15.0025 7.83248 15.0025 7.98748C15 8.14248 14.94 8.28748 14.83 8.39748Z" fill="#818987"/>
</svg>
