<svg width="28" height="28" viewBox="0 0 28 28" fill="none" xmlns="http://www.w3.org/2000/svg">
<path d="M26.6968 9.56401C22.5407 8.62934 17.9957 9.70365 14.7399 12.83C14.5509 13.0022 14.4065 13.2061 14.2287 13.3889C14.0508 13.1847 13.8509 12.9914 13.6619 12.798C10.4392 9.64996 5.90537 8.53255 1.73813 9.43521C0.771403 13.4534 1.88256 17.8477 5.11646 20.9958C6.8721 22.704 9.00578 23.7892 11.2615 24.3047C11.2615 24.3264 11.2727 24.3478 11.2727 24.3692C15.4287 25.3039 19.9737 24.2296 23.2298 21.1029C26.4746 17.9659 27.6304 13.5822 26.6968 9.56401Z" fill="#14F195"/>
<path d="M18.5505 23.9396C18.4064 20.1684 16.9615 16.4298 14.2391 13.3999C11.4719 16.3972 9.99418 20.1039 9.79395 23.8645C10.2718 24.0364 10.7607 24.176 11.2498 24.2943C11.2498 24.3157 11.2607 24.3371 11.2607 24.3585C13.6723 24.8959 16.2059 24.7561 18.5505 23.9396Z" fill="#14B572"/>
<path d="M18.5158 4.75095C18.5046 4.5682 18.4824 4.37487 18.46 4.19237C18.0158 4.04189 17.5491 3.86998 17.0934 3.76234C17.0934 3.74092 17.0934 3.78402 17.0934 3.76234C14.7263 3.22519 12.2261 3.33282 9.9146 4.10616C9.88123 4.33176 9.85907 4.55736 9.83691 4.7938C9.84813 4.97655 9.87029 5.16989 9.89245 5.35264C10.337 5.50312 10.8036 5.67504 11.2591 5.78216C11.2591 5.80384 11.2591 5.76073 11.2591 5.78216C13.6261 6.31957 16.1264 6.21219 18.4379 5.43859C18.4712 5.20215 18.4937 4.97655 18.5158 4.75095Z" fill="#14F195"/>
</svg>