<svg width="16" height="16" viewBox="0 0 16 16" fill="none" xmlns="http://www.w3.org/2000/svg">
<path d="M14 7.5H10.5C9.403 7.5 8.5 8.403 8.5 9.5C8.5 10.597 9.403 11.5 10.5 11.5H12.5V13C12.5 13.2745 12.2745 13.5 12 13.5H4C3.177 13.5 2.5 12.823 2.5 12V4.5C2.5 3.677 3.177 3 4 3H5C5.2745 3 5.5 2.7745 5.5 2.5C5.5 2.2255 5.2745 2 5 2H4C2.6285 2 1.5 3.1285 1.5 4.5V12C1.5 13.3715 2.6285 14.5 4 14.5H12C12.823 14.5 13.5 13.823 13.5 13V11.5H14C14.2745 11.5 14.5 11.2745 14.5 11V8C14.5 7.7255 14.2745 7.5 14 7.5ZM13.5 10.5H10.5C9.9515 10.5 9.5 10.0485 9.5 9.5C9.5 8.9515 9.9515 8.5 10.5 8.5H13.5V10.5Z" fill="white"/>
<path d="M3.82024 4.03499C3.26224 4.27849 3.44674 4.99999 4.00024 4.99999H12.0002C12.2747 4.99999 12.5002 5.22549 12.5002 5.49999V5.99999C12.5002 6.27449 12.7257 6.49999 13.0002 6.49999C13.2747 6.49999 13.5002 6.27449 13.5002 5.99999V5.49999C13.4997 5.10249 13.3417 4.72099 13.0602 4.43999C12.7792 4.15849 12.3977 4.00049 12.0002 3.99999H11.8402L10.9652 1.81499C10.8637 1.56249 10.5737 1.43649 10.3202 1.53499L3.82024 4.03499ZM10.7602 3.99999H6.69524L10.2202 2.64499L10.7602 3.99999Z" fill="white"/>
</svg>
