<svg width="16" height="16" viewBox="0 0 16 16" fill="none" xmlns="http://www.w3.org/2000/svg">
<path fill-rule="evenodd" clip-rule="evenodd" d="M7.3335 1.3335H4.00016C2.5275 1.3335 1.3335 2.5275 1.3335 4.00016V12.0002C1.3335 13.4728 2.5275 14.6668 4.00016 14.6668H12.0002C13.4728 14.6668 14.6668 13.4728 14.6668 12.0002C14.6668 10.4862 14.6668 8.66683 14.6668 8.66683C14.6668 8.29883 14.3682 8.00016 14.0002 8.00016C13.6322 8.00016 13.3335 8.29883 13.3335 8.66683V12.0002C13.3335 12.7362 12.7362 13.3335 12.0002 13.3335C9.78016 13.3335 6.2195 13.3335 4.00016 13.3335C3.2635 13.3335 2.66683 12.7362 2.66683 12.0002C2.66683 9.78016 2.66683 6.2195 2.66683 4.00016C2.66683 3.2635 3.2635 2.66683 4.00016 2.66683H7.3335C7.7015 2.66683 8.00016 2.36816 8.00016 2.00016C8.00016 1.63216 7.7015 1.3335 7.3335 1.3335ZM12.3908 2.66683H10.0002C9.63216 2.66683 9.3335 2.36816 9.3335 2.00016C9.3335 1.63216 9.63216 1.3335 10.0002 1.3335H14.0002C14.3682 1.3335 14.6668 1.63216 14.6668 2.00016V6.00016C14.6668 6.36816 14.3682 6.66683 14.0002 6.66683C13.6322 6.66683 13.3335 6.36816 13.3335 6.00016V3.6095L8.4715 8.4715C8.2115 8.7315 7.78883 8.7315 7.52883 8.4715C7.26816 8.2115 7.26816 7.78883 7.52883 7.52883L12.3908 2.66683Z" fill="white"/>
</svg>
