<svg width="16" height="16" viewBox="0 0 16 16" fill="none" xmlns="http://www.w3.org/2000/svg">
<path d="M14.6876 1.10938L8.89258 5.42029L9.9703 2.87614L14.6876 1.10938Z" fill="#E17726" stroke="#E17726" stroke-linecap="round" stroke-linejoin="round"/>
<path d="M1.29639 1.10938L7.05604 5.45562L6.03132 2.87614L1.29639 1.10938Z" fill="#E27625" stroke="#E27625" stroke-linecap="round" stroke-linejoin="round"/>
<path d="M12.6036 11.0918L11.0488 13.4593L14.3703 14.378L15.3067 11.1448L12.6036 11.0918Z" fill="#E27625" stroke="#E27625" stroke-linecap="round" stroke-linejoin="round"/>
<path d="M0.695312 11.1448L1.6317 14.378L4.93555 13.4593L3.39846 11.0918L0.695312 11.1448Z" fill="#E27625" stroke="#E27625" stroke-linecap="round" stroke-linejoin="round"/>
<path d="M4.75905 7.0985L3.84033 8.49424L7.10885 8.63558L7.00284 5.10205L4.75905 7.0985Z" fill="#E27625" stroke="#E27625" stroke-linecap="round" stroke-linejoin="round"/>
<path d="M11.2429 7.09868L8.96374 5.06689L8.89307 8.63576L12.1616 8.49442L11.2429 7.09868Z" fill="#E27625" stroke="#E27625" stroke-linecap="round" stroke-linejoin="round"/>
<path d="M4.93555 13.4589L6.91433 12.5048L5.20056 11.1621L4.93555 13.4589Z" fill="#E27625" stroke="#E27625" stroke-linecap="round" stroke-linejoin="round"/>
<path d="M9.08789 12.5048L11.049 13.4589L10.784 11.1621L9.08789 12.5048Z" fill="#E27625" stroke="#E27625" stroke-linecap="round" stroke-linejoin="round"/>
<path d="M11.048 13.4589L9.08691 12.5049L9.24592 13.777L9.22826 14.3247L11.048 13.4589Z" fill="#D5BFB2" stroke="#D5BFB2" stroke-linecap="round" stroke-linejoin="round"/>
<path d="M4.93506 13.4589L6.7725 14.3247L6.75483 13.777L6.91384 12.5049L4.93506 13.4589Z" fill="#D5BFB2" stroke="#D5BFB2" stroke-linecap="round" stroke-linejoin="round"/>
<path d="M6.80764 10.3142L5.16455 9.83716L6.31295 9.30713L6.80764 10.3142Z" fill="#233447" stroke="#233447" stroke-linecap="round" stroke-linejoin="round"/>
<path d="M9.19336 10.3142L9.67039 9.30713L10.8365 9.83716L9.19336 10.3142Z" fill="#233447" stroke="#233447" stroke-linecap="round" stroke-linejoin="round"/>
<path d="M4.93552 13.4593L5.2182 11.0918L3.39844 11.1448L4.93552 13.4593Z" fill="#CC6228" stroke="#CC6228" stroke-linecap="round" stroke-linejoin="round"/>
<path d="M10.7832 11.0918L11.0482 13.4593L12.603 11.1448L10.7832 11.0918Z" fill="#CC6228" stroke="#CC6228" stroke-linecap="round" stroke-linejoin="round"/>
<path d="M12.1611 8.49463L8.89258 8.63597L9.19293 10.3144L9.66996 9.30734L10.836 9.83737L12.1611 8.49463Z" fill="#CC6228" stroke="#CC6228" stroke-linecap="round" stroke-linejoin="round"/>
<path d="M5.16492 9.83737L6.31332 9.30734L6.80801 10.3144L7.10836 8.63597L3.83984 8.49463L5.16492 9.83737Z" fill="#CC6228" stroke="#CC6228" stroke-linecap="round" stroke-linejoin="round"/>
<path d="M3.83936 8.49463L5.19976 11.1624L5.16443 9.83737L3.83936 8.49463Z" fill="#E27525" stroke="#E27525" stroke-linecap="round" stroke-linejoin="round"/>
<path d="M10.8357 9.83737L10.7827 11.1624L12.1608 8.49463L10.8357 9.83737Z" fill="#E27525" stroke="#E27525" stroke-linecap="round" stroke-linejoin="round"/>
<path d="M7.10846 8.63574L6.80811 10.3142L7.17913 12.3106L7.26747 9.67813L7.10846 8.63574Z" fill="#E27525" stroke="#E27525" stroke-linecap="round" stroke-linejoin="round"/>
<path d="M8.89241 8.63574L8.7334 9.67813L8.80407 12.3106L9.19276 10.3142L8.89241 8.63574Z" fill="#E27525" stroke="#E27525" stroke-linecap="round" stroke-linejoin="round"/>
<path d="M9.19289 10.3144L8.8042 12.3109L9.08688 12.5052L10.783 11.1625L10.836 9.8374L9.19289 10.3144Z" fill="#F5841F" stroke="#F5841F" stroke-linecap="round" stroke-linejoin="round"/>
<path d="M5.16455 9.8374L5.19989 11.1625L6.91365 12.5052L7.17866 12.3109L6.80764 10.3144L5.16455 9.8374Z" fill="#F5841F" stroke="#F5841F" stroke-linecap="round" stroke-linejoin="round"/>
<path d="M9.2283 14.3247L9.24597 13.777L9.08696 13.6533H6.89617L6.75483 13.777L6.7725 14.3247L4.93506 13.459L5.57109 13.989L6.8785 14.8901H9.10463L10.412 13.989L11.0481 13.459L9.2283 14.3247Z" fill="#C0AC9D" stroke="#C0AC9D" stroke-linecap="round" stroke-linejoin="round"/>
<path d="M9.08701 12.5049L8.80433 12.3105H7.17891L6.91389 12.5049L6.75488 13.777L6.89622 13.6533H9.08701L9.24602 13.777L9.08701 12.5049Z" fill="#161616" stroke="#161616" stroke-linecap="round" stroke-linejoin="round"/>
<path d="M14.9349 5.70297L15.4296 3.31783L14.6876 1.10938L9.08691 5.27894L11.2424 7.09871L14.2812 7.9821L14.9526 7.20472L14.6699 6.99271L15.1293 6.56868L14.7759 6.286L15.2353 5.93265L14.9349 5.70297Z" fill="#763E1A" stroke="#763E1A" stroke-linecap="round" stroke-linejoin="round"/>
<path d="M0.571289 3.31783L1.06598 5.70297L0.747966 5.93265L1.20732 6.286L0.853971 6.56868L1.331 6.99271L1.03065 7.20472L1.70202 7.9821L4.75852 7.09871L6.91398 5.27894L1.29566 1.10938L0.571289 3.31783Z" fill="#763E1A" stroke="#763E1A" stroke-linecap="round" stroke-linejoin="round"/>
<path d="M14.2819 7.98202L11.2431 7.09863L12.1618 8.49438L10.7837 11.1622L12.6035 11.1445H15.3066L14.2819 7.98202Z" fill="#F5841F" stroke="#F5841F" stroke-linecap="round" stroke-linejoin="round"/>
<path d="M4.75887 7.09863L1.70237 7.98202L0.695312 11.1445H3.39846L5.20057 11.1622L3.84016 8.49438L4.75887 7.09863Z" fill="#F5841F" stroke="#F5841F" stroke-linecap="round" stroke-linejoin="round"/>
<path d="M8.89292 8.63563L9.08727 5.27878L9.97065 2.87598H6.03076L6.91414 5.27878L7.10849 8.63563L7.17916 9.69569V12.3105H8.80458V9.69569L8.89292 8.63563Z" fill="#F5841F" stroke="#F5841F" stroke-linecap="round" stroke-linejoin="round"/>
</svg>
