<svg width="10" height="11" viewBox="0 0 10 11" fill="none" xmlns="http://www.w3.org/2000/svg">
<g clip-path="url(#clip0_778_5250)">
<path d="M7.8125 4.17188H7.10865V2.56582C7.10865 1.42672 6.16238 0.5 4.99928 0.5C3.83617 0.5 2.8899 1.42672 2.8899 2.56582V4.17188H2.1875C1.54133 4.17188 1.01562 4.69758 1.01562 5.34375V9.32812C1.01562 9.9743 1.54133 10.5 2.1875 10.5H7.8125C8.45867 10.5 8.98438 9.9743 8.98438 9.32812V5.34375C8.98438 4.69758 8.45867 4.17188 7.8125 4.17188ZM3.67115 2.56582C3.67115 1.8575 4.26695 1.28125 4.99928 1.28125C5.7316 1.28125 6.3274 1.8575 6.3274 2.56582V4.17188H3.67115V2.56582ZM8.20312 9.32812C8.20312 9.54352 8.02789 9.71875 7.8125 9.71875H2.1875C1.97211 9.71875 1.79688 9.54352 1.79688 9.32812V5.34375C1.79688 5.12836 1.97211 4.95312 2.1875 4.95312H7.8125C8.02789 4.95312 8.20312 5.12836 8.20312 5.34375V9.32812Z" fill="#A3AEAC"/>
<path d="M5 6.08594C4.60088 6.08594 4.27734 6.40947 4.27734 6.80859C4.27734 7.06344 4.40937 7.2873 4.60865 7.41598V8.27344C4.60865 8.48916 4.78354 8.66406 4.99928 8.66406C5.215 8.66406 5.3899 8.48916 5.3899 8.27344V7.41689C5.58998 7.28838 5.72266 7.06406 5.72266 6.80859C5.72266 6.40947 5.39912 6.08594 5 6.08594Z" fill="#A3AEAC"/>
</g>
<defs>
<clipPath id="clip0_778_5250">
<rect width="10" height="10" fill="white" transform="translate(0 0.5)"/>
</clipPath>
</defs>
</svg>
