<svg width="16" height="16" viewBox="0 0 16 16" fill="none" xmlns="http://www.w3.org/2000/svg">
<path d="M7.65067 6C7.47386 6 7.30429 5.92976 7.17926 5.80474C7.05424 5.67971 6.984 5.51014 6.984 5.33333V3.33333C6.984 2.8029 6.77329 2.29419 6.39821 1.91912C6.02314 1.54405 5.51443 1.33333 4.984 1.33333H3.33333C2.8029 1.33333 2.29419 1.54405 1.91912 1.91912C1.54405 2.29419 1.33333 2.8029 1.33333 3.33333V12.6667C1.33333 13.1971 1.54405 13.7058 1.91912 14.0809C2.29419 14.456 2.8029 14.6667 3.33333 14.6667H4.984C5.51443 14.6667 6.02314 14.456 6.39821 14.0809C6.77329 13.7058 6.984 13.1971 6.984 12.6667V10.6667C6.984 10.4899 7.05424 10.3203 7.17926 10.1953C7.30429 10.0702 7.47386 10 7.65067 10C7.82748 10 7.99705 10.0702 8.12207 10.1953C8.2471 10.3203 8.31733 10.4899 8.31733 10.6667V12.6667C8.31627 13.5504 7.96475 14.3976 7.33985 15.0225C6.71496 15.6474 5.86773 15.9989 4.984 16H3.33333C2.4496 15.9989 1.60237 15.6474 0.97748 15.0225C0.352588 14.3976 0.00105857 13.5504 0 12.6667L0 3.33333C0.00105857 2.4496 0.352588 1.60237 0.97748 0.977479C1.60237 0.352587 2.4496 0.00105762 3.33333 0H4.984C5.86773 0.00105762 6.71496 0.352587 7.33985 0.977479C7.96475 1.60237 8.31627 2.4496 8.31733 3.33333V5.33333C8.31733 5.51014 8.2471 5.67971 8.12207 5.80474C7.99705 5.92976 7.82748 6 7.65067 6Z" fill="white"/>
<path d="M15.2448 9.41395L12.1875 12.4713C12.126 12.535 12.0524 12.5857 11.9711 12.6207C11.8898 12.6556 11.8023 12.674 11.7138 12.6748C11.6252 12.6755 11.5375 12.6587 11.4555 12.6252C11.3736 12.5916 11.2992 12.5421 11.2366 12.4795C11.174 12.4169 11.1245 12.3425 11.0909 12.2606C11.0574 12.1787 11.0406 12.0909 11.0413 12.0023C11.0421 11.9138 11.0605 11.8263 11.0954 11.745C11.1304 11.6637 11.1812 11.5901 11.2448 11.5286L14.0862 8.68661L4.00016 8.66661C3.82335 8.66661 3.65378 8.59637 3.52876 8.47135C3.40373 8.34633 3.3335 8.17676 3.3335 7.99995C3.3335 7.82313 3.40373 7.65357 3.52876 7.52854C3.65378 7.40352 3.82335 7.33328 4.00016 7.33328L14.1255 7.35395L11.2435 4.47128C11.1798 4.40978 11.129 4.33622 11.0941 4.25488C11.0592 4.17355 11.0408 4.08607 11.04 3.99755C11.0392 3.90903 11.0561 3.82124 11.0896 3.73931C11.1231 3.65738 11.1726 3.58294 11.2352 3.52035C11.2978 3.45775 11.3723 3.40825 11.4542 3.37473C11.5361 3.34121 11.6239 3.32434 11.7124 3.32511C11.801 3.32588 11.8884 3.34427 11.9698 3.37921C12.0511 3.41415 12.1247 3.46494 12.1862 3.52861L15.2435 6.58595C15.6186 6.96082 15.8295 7.46934 15.8297 7.99967C15.83 8.53 15.6196 9.03871 15.2448 9.41395Z" fill="white"/>
</svg>
