<svg width="239" height="233" viewBox="0 0 239 233" fill="none" xmlns="http://www.w3.org/2000/svg">
<rect width="239" height="233" rx="116.5" fill="white"/>
<path d="M229.976 112.697C228.688 51.4301 177.633 2.95092 116.183 5.06671C56.205 7.09051 8.73773 57.3176 10.0256 117.388C10.9455 161.728 38.0828 199.443 76.2591 216.001C81.6867 209.102 86.1943 196.776 88.4021 189.877C90.6099 184.266 93.0016 178.746 95.4854 173.411C106.616 177.274 121.611 173.595 129.89 164.671L130.258 164.304C120.323 159.98 106.616 162.188 97.6012 169.179C100.637 162.832 103.949 156.668 107.352 150.689C118.299 155.104 133.478 152.069 142.033 143.606L142.401 143.238C132.834 138.546 119.311 140.018 110.02 146.273C113.424 140.662 116.919 135.142 120.599 129.991C132.006 133.487 147 129.163 154.82 119.872L155.096 119.504C145.804 115.916 133.662 118.032 125.014 124.103C125.29 123.735 125.658 123.276 125.934 122.908C128.142 120.056 130.442 117.204 132.742 114.444C146.172 110.673 158.131 96.9661 160.063 82.7995L160.155 82.2476H160.063C146.172 85.0073 133.294 98.714 130.718 113.157C128.51 115.824 126.302 118.492 124.187 121.252C127.682 111.869 127.038 100.37 121.979 92.4586L121.703 92.8265C114.068 102.486 112.872 118.216 118.759 128.703C115.263 133.671 111.86 138.73 108.64 144.065C110.664 133.395 107.26 120.976 99.717 113.984L99.533 114.444C94.5655 125.575 97.2332 140.938 105.42 149.677C102.201 155.288 99.165 161.084 96.2213 167.063C97.9691 155.932 94.0135 143.054 86.1023 136.154L85.9183 136.614C81.4108 148.297 84.9064 164.12 93.6456 172.583C91.7137 176.722 89.8739 180.862 88.1261 185.185C87.6661 184.725 87.1142 184.45 86.4703 184.174C84.1705 183.53 81.0428 182.334 77.547 180.218C75.2472 178.838 72.7634 177.734 70.2797 176.906C60.3447 173.687 61.8165 168.903 56.665 159.244C56.297 158.6 52.2494 154.368 51.3295 153.541C51.1456 153.357 48.4778 151.793 47.1899 149.033C45.9941 146.457 45.2581 144.065 45.0741 141.766C44.7062 138.638 43.4183 136.614 40.3826 135.51C25.7561 130.451 32.2874 111.501 32.8394 109.017C33.2993 106.901 31.3675 102.21 30.7236 99.6339C30.6316 99.3579 30.5396 98.9899 30.4476 98.438C29.4357 93.3785 31.7355 89.0549 33.4833 87.3071C35.2311 85.5592 41.3025 82.7075 42.5904 81.0517C43.8783 79.3959 44.7982 77.556 46.086 75.9922C47.8339 73.8764 52.9854 69.7363 60.0687 65.9647C64.3003 63.6649 65.0362 57.7775 66.692 55.9377C69.4518 52.81 73.6833 52.81 76.811 50.0503C78.3749 48.6704 80.6748 47.9345 82.1467 46.4626C89.414 39.0114 99.073 36.0677 108.64 34.2278C115.079 33.032 122.255 34.8718 129.062 36.0677C130.074 36.2516 130.994 36.4356 131.914 36.7116C147.092 37.2635 165.307 40.3912 171.93 46.8306C176.069 50.8782 178.093 55.2018 179.013 58.2375C180.117 61.6411 181.589 64.8608 183.429 67.8045L187.476 74.4283C190.052 78.5679 190.88 83.6274 189.776 88.411C189.132 91.1707 188.856 94.0224 189.592 95.5863C190.88 98.07 194.744 102.118 197.043 104.417C198.147 105.521 199.435 106.533 200.723 107.361C203.851 109.293 209.738 113.157 209.738 113.433C209.738 113.892 210.198 115.732 207.622 118.032C205.047 120.332 200.079 123.919 200.079 123.919C200.079 123.919 200.355 125.575 200.999 126.863C201.735 128.151 203.391 130.175 202.839 131.923C202.287 133.671 198.699 135.142 199.711 137.074C200.723 139.098 203.299 139.65 202.563 141.49C201.827 143.238 198.239 146.365 198.607 147.653C198.975 148.941 201.919 161.268 195.112 163.384C190.052 165.039 176.069 165.867 169.538 166.235C166.686 166.419 164.203 167.983 162.823 170.467C161.811 172.307 160.799 174.882 160.339 178.286C159.051 186.933 150.496 206.895 150.496 206.895C150.496 206.895 150.22 207.447 149.852 208.275C149.116 210.115 148.012 212.875 148.196 214.071C148.288 214.807 149.3 216.278 150.772 218.026C151.968 219.406 153.9 219.958 155.647 219.406C199.711 203.952 230.988 161.728 229.976 112.697Z" fill="#00DACC"/>
</svg>
